<?xml version="1.0" standalone="no"?>
<!DOCTYPE svg PUBLIC "-//W3C//DTD SVG 20010904//EN"
 "http://www.w3.org/TR/2001/REC-SVG-20010904/DTD/svg10.dtd">
<svg version="1.0" xmlns="http://www.w3.org/2000/svg"
 width="1200.000000pt" height="504.000000pt" viewBox="0 0 1200.000000 504.000000"
 preserveAspectRatio="xMidYMid meet">
<metadata>
Created by potrace 1.15, written by Peter Selinger 2001-2017
</metadata>
<g transform="translate(0.000000,504.000000) scale(0.100000,-0.100000)"
fill="#000000" stroke="none">
<path d="M11692 4658 c-7 -7 -12 -19 -12 -28 0 -9 -3 -20 -6 -23 -4 -4 -8 -21
-9 -39 -2 -22 -13 -40 -34 -57 -35 -29 -38 -42 -15 -65 18 -19 57 -21 84 -4
24 15 35 6 21 -19 -26 -47 -51 -119 -51 -147 0 -21 -10 -42 -30 -64 l-30 -33
-37 26 c-45 30 -80 32 -126 6 -20 -11 -48 -17 -71 -16 -27 3 -39 -1 -43 -13
-8 -21 -60 -72 -90 -88 -11 -7 -45 -15 -73 -19 -29 -4 -60 -15 -69 -24 -9 -9
-26 -20 -38 -26 -40 -19 -115 -97 -134 -140 -15 -33 -19 -69 -20 -153 -1 -102
-3 -112 -24 -130 -13 -11 -27 -26 -31 -34 -5 -7 -22 -22 -37 -32 -23 -14 -27
-23 -22 -39 3 -12 6 -29 6 -37 0 -55 27 -78 57 -48 10 10 17 10 32 0 14 -8 26
-9 38 -3 11 6 24 6 35 -1 10 -5 25 -7 33 -4 9 4 18 -3 24 -19 5 -14 16 -25 23
-25 16 0 47 31 47 48 0 6 13 21 28 34 16 13 34 41 40 64 10 35 18 44 54 58 24
10 77 20 118 23 78 5 141 29 170 65 15 19 60 34 127 45 20 3 35 12 38 24 3 10
15 21 26 24 11 4 31 17 46 31 14 13 32 24 39 24 7 0 26 20 42 44 22 33 30 56
30 88 0 24 10 68 21 98 26 69 26 92 1 115 -11 10 -20 25 -20 34 0 16 45 71 58
71 26 1 35 23 39 97 l5 79 -44 30 c-23 16 -51 32 -60 36 -10 4 -18 12 -18 18
0 18 -31 11 -51 -12 l-19 -23 14 34 c7 18 21 38 30 43 34 19 6 88 -36 88 -9 0
-21 7 -28 15 -15 18 -32 19 -48 3z m191 -228 c36 -24 38 -27 32 -65 -4 -22 -6
-48 -6 -57 0 -10 -10 -23 -21 -29 -29 -16 -67 -60 -74 -87 -5 -16 0 -33 15
-52 25 -35 26 -56 4 -106 -9 -22 -18 -61 -19 -88 0 -28 -6 -52 -12 -54 -7 -2
-12 -11 -12 -20 0 -10 -29 -36 -67 -62 -38 -24 -75 -52 -83 -61 -8 -9 -42 -22
-75 -30 -33 -7 -70 -23 -81 -34 -47 -47 -92 -65 -162 -65 -47 -1 -83 -8 -122
-24 -49 -21 -57 -29 -70 -67 -8 -24 -28 -56 -43 -71 -15 -15 -27 -32 -27 -39
0 -7 -9 -4 -21 7 -20 18 -31 20 -165 23 -26 1 -33 6 -37 29 -3 15 -1 29 5 31
6 2 19 13 30 25 11 11 31 33 45 48 25 26 26 34 28 145 1 87 5 126 17 148 21
39 112 125 133 125 8 0 15 5 15 10 0 15 49 32 92 32 20 -1 42 6 49 14 6 8 17
14 23 14 6 0 24 12 38 28 51 52 63 59 81 48 12 -8 22 -5 39 10 13 11 35 26 50
33 25 13 31 12 69 -13 50 -33 78 -29 120 17 21 23 29 42 29 68 0 21 7 50 15
66 8 15 24 49 35 75 31 73 56 78 133 28z"/>
<path d="M717 3490 c-9 -11 -23 -20 -30 -20 -8 0 -22 -9 -32 -20 -10 -11 -23
-20 -30 -20 -6 0 -22 -20 -34 -45 -12 -25 -27 -45 -33 -45 -5 0 -18 -10 -29
-22 -29 -35 -25 -101 9 -157 27 -44 72 -171 72 -204 0 -9 3 -17 8 -19 27 -12
82 -119 82 -161 0 -21 7 -41 20 -52 11 -10 20 -24 20 -31 0 -7 6 -17 14 -21
25 -15 55 -99 66 -187 12 -95 28 -129 71 -152 39 -20 61 -4 84 58 9 27 22 54
29 61 24 27 54 74 61 97 4 14 22 41 41 61 37 38 54 82 54 139 0 19 4 41 9 48
8 14 -12 121 -29 153 -7 12 -5 21 5 29 8 7 15 20 15 29 0 10 14 30 31 47 17
16 38 44 46 62 15 32 15 36 -2 64 -10 17 -26 39 -35 48 -10 10 -21 37 -25 61
-4 24 -13 55 -20 69 -7 14 -19 40 -25 58 -7 18 -20 36 -29 41 -22 12 -83 12
-97 0 -32 -27 -186 -1 -206 35 -13 22 -60 20 -81 -4z m71 -40 c42 -30 111 -41
189 -30 107 15 105 16 131 -43 12 -28 22 -62 22 -74 0 -12 5 -25 10 -28 6 -3
10 -15 10 -25 0 -10 11 -31 25 -46 40 -43 37 -75 -11 -124 -19 -20 -34 -43
-34 -52 0 -8 -7 -21 -16 -29 -17 -14 -16 -28 10 -118 12 -41 14 -66 6 -105
-18 -98 -23 -111 -55 -146 -18 -19 -36 -46 -40 -59 -10 -33 -45 -91 -55 -91
-5 0 -19 -27 -31 -60 -12 -33 -24 -60 -28 -60 -3 0 -16 8 -29 18 -24 19 -29
35 -41 142 -7 64 -53 180 -72 180 -5 0 -9 6 -9 13 0 8 -9 22 -19 31 -11 10
-17 24 -14 32 8 23 -54 154 -88 184 -3 3 -11 32 -19 65 -7 33 -17 64 -22 70
-4 5 -8 15 -8 23 0 8 -13 33 -28 56 -35 52 -33 108 4 133 13 8 34 31 46 52 28
44 67 80 89 81 9 0 22 7 29 15 16 19 15 19 48 -5z"/>
<path d="M10756 3145 c-11 -8 -30 -12 -47 -8 -18 3 -29 1 -29 -6 0 -6 -8 -11
-17 -11 -10 0 -27 -7 -37 -15 -11 -8 -30 -15 -42 -15 -13 0 -25 -4 -29 -9 -7
-13 -64 -41 -81 -41 -21 0 -27 -61 -11 -94 15 -27 9 -69 -13 -101 -20 -29 -42
-110 -37 -135 5 -20 -1 -38 -18 -62 -26 -36 -65 -111 -65 -126 0 -5 -16 -44
-36 -87 -27 -58 -52 -93 -99 -139 -60 -58 -63 -64 -74 -127 -6 -36 -11 -77
-11 -91 0 -14 -7 -28 -15 -32 -8 -3 -15 -12 -15 -21 0 -9 -18 -32 -40 -53 -35
-32 -42 -45 -51 -101 -5 -35 -7 -71 -4 -80 3 -8 3 -45 -1 -81 -6 -64 -7 -66
-73 -130 -73 -71 -172 -154 -211 -175 -69 -37 -130 -64 -181 -78 -57 -17 -186
-20 -195 -5 -10 16 -29 7 -42 -19 -7 -17 -8 -31 -3 -36 6 -6 4 -15 -5 -24 -17
-17 -29 -61 -20 -70 4 -4 20 1 35 10 46 27 48 26 268 -44 18 -6 37 -8 42 -5 5
3 29 -1 54 -10 41 -14 48 -14 76 1 17 8 31 20 31 25 0 5 23 33 51 62 28 29 68
78 88 108 20 30 42 59 48 63 7 4 20 21 28 37 18 35 66 60 117 60 21 0 47 5 58
10 11 5 29 15 40 20 11 6 39 12 63 15 24 2 56 9 72 15 28 11 84 23 163 37 18
3 45 17 61 32 22 20 38 26 74 26 40 0 51 5 86 39 22 22 43 52 46 68 4 15 13
28 20 28 15 0 31 62 21 79 -4 5 6 31 20 58 15 26 31 61 35 78 15 57 36 107 50
116 21 13 17 109 -5 121 -12 7 -14 13 -7 22 11 13 6 78 -8 103 -12 23 -2 50
20 56 10 3 22 13 25 24 3 10 10 26 15 35 5 10 9 31 9 46 0 16 3 32 8 36 4 4 8
29 8 54 1 26 4 69 7 96 3 27 1 60 -4 75 -6 14 -12 66 -14 116 -2 49 -6 97 -9
105 -2 8 -7 28 -10 43 -4 17 -16 31 -32 37 -14 6 -28 19 -31 31 -3 11 -23 29
-44 39 -45 23 -48 24 -73 5z m65 -54 c12 -17 34 -35 50 -41 36 -15 39 -24 51
-165 14 -149 12 -313 -3 -331 -6 -8 -8 -25 -5 -38 3 -14 2 -28 -4 -31 -5 -3
-10 -15 -10 -27 0 -11 -8 -22 -19 -25 -31 -8 -47 -58 -32 -99 7 -20 10 -51 6
-72 -4 -26 -1 -43 9 -57 19 -25 20 -46 2 -82 -30 -60 -50 -109 -52 -123 0 -8
-2 -20 -3 -27 0 -6 -9 -19 -18 -29 -27 -27 -44 -84 -32 -107 9 -15 6 -23 -10
-38 -12 -11 -21 -26 -21 -34 0 -8 -16 -33 -36 -55 -33 -36 -41 -40 -86 -40
-37 0 -54 -5 -66 -19 -20 -24 -128 -61 -176 -61 -19 0 -37 -4 -40 -9 -4 -5
-30 -12 -59 -16 -28 -4 -61 -11 -72 -15 -11 -4 -23 -8 -27 -9 -4 -1 -23 -8
-42 -16 -20 -8 -50 -15 -68 -16 -41 -1 -89 -28 -105 -60 -7 -13 -21 -31 -31
-39 -10 -8 -31 -36 -46 -62 -15 -25 -48 -68 -74 -95 -26 -27 -57 -62 -69 -78
-21 -29 -22 -29 -67 -17 -26 6 -57 12 -71 12 -14 0 -67 14 -120 30 -52 17
-108 32 -125 33 -21 1 -30 7 -30 20 0 18 10 21 80 18 25 -1 81 9 126 22 157
48 261 115 415 267 60 60 67 70 74 120 4 30 8 58 7 61 -3 16 -2 89 2 128 3 36
11 50 45 81 23 21 41 44 41 53 0 8 6 20 14 26 12 10 32 100 27 128 -1 6 3 14
9 18 5 3 10 17 10 30 0 16 19 40 59 77 32 29 63 63 70 76 6 12 21 22 31 22 11
0 20 7 20 15 0 8 -7 15 -16 15 -9 0 -14 3 -12 8 37 77 68 148 68 156 0 3 14
25 31 49 26 35 30 48 26 82 -4 23 0 49 8 65 46 86 58 133 46 175 -8 31 -7 38
13 58 12 12 33 27 47 34 49 25 101 43 109 38 4 -3 13 2 20 10 7 9 20 13 29 10
10 -3 26 2 37 10 28 21 41 18 65 -14z"/>
<path d="M5123 2677 c-12 -20 -102 -60 -132 -59 -43 3 -85 9 -104 17 -10 4
-36 5 -58 2 -23 -3 -54 -1 -70 5 -33 12 -55 -1 -70 -39 -5 -14 -17 -23 -29
-23 -11 0 -20 -4 -20 -10 0 -5 -16 -10 -36 -10 -52 0 -126 -64 -142 -124 -8
-32 -20 -50 -42 -62 -16 -10 -30 -22 -30 -26 0 -4 -12 -19 -27 -33 -16 -14
-28 -31 -28 -38 0 -6 -13 -13 -28 -15 -18 -2 -31 -11 -37 -26 -10 -28 -29 -36
-86 -36 -32 0 -56 -8 -86 -27 -36 -24 -51 -28 -117 -27 -42 0 -93 3 -113 7
-31 7 -38 5 -38 -8 0 -11 -6 -14 -25 -9 -19 5 -25 2 -25 -11 0 -13 -6 -16 -25
-11 -14 4 -33 2 -42 -3 -70 -35 -168 -49 -177 -25 -3 8 -12 14 -20 14 -9 0
-24 10 -35 21 -17 19 -24 20 -53 10 -18 -6 -50 -23 -70 -36 -20 -14 -56 -28
-79 -31 -23 -4 -50 -15 -61 -26 -30 -30 -21 -72 17 -79 11 -3 26 -17 33 -32 8
-16 20 -31 28 -34 8 -3 14 -13 14 -22 0 -9 9 -22 20 -29 11 -7 20 -21 20 -32
0 -10 14 -32 31 -48 27 -25 30 -32 20 -50 -12 -22 0 -96 22 -137 6 -11 17 -32
24 -47 7 -14 20 -29 28 -32 8 -3 15 -13 15 -22 0 -34 72 -150 122 -196 47 -43
50 -50 50 -92 -1 -43 1 -47 33 -61 33 -13 35 -16 35 -64 0 -63 27 -87 87 -77
21 4 55 8 75 9 21 1 47 12 60 24 34 30 91 45 160 41 56 -3 63 -1 74 20 16 32
99 122 113 122 6 0 11 8 11 18 0 9 16 32 35 49 19 18 35 37 35 42 0 5 23 29
51 52 30 27 49 50 46 59 -12 46 15 151 63 244 28 54 50 106 50 115 0 10 14 30
30 46 33 31 38 68 19 123 -8 23 -8 41 1 68 14 41 66 93 93 94 10 0 51 34 92
75 41 41 81 75 89 75 7 0 17 12 21 28 11 46 33 71 69 77 19 4 57 24 86 46 32
24 63 39 80 39 16 0 30 7 34 15 3 8 12 15 21 15 9 0 15 9 15 24 0 14 5 28 10
31 14 9 12 29 -7 75 -13 29 -25 41 -46 46 -16 3 -31 12 -34 20 -7 18 -29 18
-40 1z m75 -75 c25 -28 26 -35 11 -63 -20 -38 -43 -59 -65 -59 -13 0 -42 -15
-66 -33 -24 -19 -57 -37 -72 -41 -47 -12 -77 -38 -97 -83 -10 -24 -23 -43 -29
-43 -6 0 -42 -31 -80 -70 -38 -38 -77 -70 -87 -70 -26 -1 -90 -61 -98 -93 -4
-15 -11 -29 -15 -32 -8 -5 -7 -19 12 -92 10 -40 9 -44 -26 -84 -20 -24 -36
-51 -36 -60 0 -10 -23 -62 -50 -115 -28 -53 -48 -99 -46 -102 3 -3 1 -10 -4
-17 -5 -6 -11 -39 -12 -73 -2 -34 -7 -62 -11 -62 -10 0 -20 -10 -77 -80 -25
-30 -50 -59 -57 -63 -7 -4 -13 -12 -13 -17 0 -5 -29 -38 -65 -73 -36 -36 -65
-68 -65 -73 0 -5 -28 -10 -61 -11 -70 -2 -122 -17 -161 -46 -17 -12 -35 -18
-49 -14 -13 3 -34 -1 -49 -10 -40 -23 -61 -7 -65 49 -3 58 -20 88 -48 88 -19
0 -22 6 -23 46 -1 42 -7 51 -51 94 -56 54 -111 137 -120 181 -3 16 -13 35 -22
42 -38 29 -72 132 -64 194 4 32 0 42 -21 62 -14 14 -26 30 -26 36 0 7 -11 24
-24 38 -14 15 -27 36 -31 47 -3 11 -11 20 -16 20 -5 0 -14 11 -19 25 -5 14
-21 30 -35 37 -23 10 -35 37 -17 39 64 7 126 29 142 51 3 4 17 11 30 16 19 7
33 4 62 -16 21 -13 38 -29 38 -35 0 -6 13 -7 33 -2 17 4 51 8 74 9 23 0 45 4
49 9 4 4 18 7 30 7 13 0 25 4 29 10 3 5 12 7 20 4 8 -3 29 2 47 12 18 9 41 21
51 26 10 5 33 5 55 -1 68 -19 145 -8 201 27 38 23 59 30 79 26 33 -7 100 18
108 41 3 8 12 15 20 15 15 0 94 69 94 82 0 4 18 25 39 46 25 24 42 52 46 74 8
41 86 114 111 104 25 -9 113 34 116 58 2 13 9 20 18 18 18 -4 185 -15 250 -16
29 0 64 9 99 26 60 28 75 27 109 -10z"/>
<path d="M2283 1646 c-18 -6 -35 -15 -39 -19 -4 -4 -14 -7 -23 -7 -18 0 -61
-69 -61 -97 0 -10 -6 -27 -14 -38 -18 -26 -33 -195 -17 -195 6 0 11 -6 11 -14
0 -7 11 -21 25 -30 15 -10 25 -26 25 -40 0 -22 27 -56 46 -56 5 0 17 -9 27
-20 9 -11 24 -20 32 -20 8 0 15 -6 15 -14 0 -14 46 -28 90 -26 126 4 180 18
215 58 11 12 26 22 32 22 6 0 13 9 16 20 3 11 18 25 33 32 16 7 41 27 56 43
23 27 26 36 22 85 -5 78 -28 121 -73 143 -21 9 -52 31 -69 47 -19 18 -38 27
-47 24 -9 -4 -15 -1 -15 8 0 30 -44 55 -105 61 -45 5 -63 11 -74 26 -15 24
-56 26 -108 7z m92 -46 c11 -12 32 -20 54 -21 67 -2 95 -13 109 -42 8 -16 21
-27 33 -27 10 0 19 -4 19 -8 0 -5 27 -23 60 -42 33 -19 61 -37 61 -42 3 -18 5
-24 15 -43 6 -11 12 -36 12 -55 1 -30 -5 -41 -35 -65 -19 -17 -54 -46 -77 -66
-67 -60 -113 -79 -197 -82 -62 -2 -78 1 -96 18 -33 30 -45 39 -76 52 -18 9
-29 23 -34 44 -3 16 -16 37 -28 45 -34 22 -48 64 -35 99 6 16 8 40 5 53 -3 12
1 35 9 50 8 15 17 38 20 52 9 38 37 65 86 82 62 21 74 21 95 -2z"/>
<path d="M6946 1495 c-31 -28 -31 -33 -9 -57 15 -17 15 -19 -1 -37 -22 -24
-54 -33 -64 -17 -13 22 -106 59 -142 58 -19 -1 -66 -4 -103 -8 -78 -7 -117 5
-132 39 -11 24 -49 34 -68 19 -24 -19 -65 -23 -71 -7 -6 16 -41 20 -50 6 -3
-5 -15 -7 -26 -4 -16 4 -20 0 -20 -20 0 -14 4 -28 9 -31 4 -3 2 -37 -5 -77 -8
-39 -11 -75 -9 -80 15 -23 -56 -102 -112 -126 -18 -7 -33 -19 -33 -26 0 -21
-56 -57 -89 -57 -33 0 -47 -15 -42 -43 1 -10 -7 -38 -18 -61 -15 -33 -18 -51
-11 -79 4 -21 4 -55 -1 -78 -7 -31 -6 -47 6 -67 8 -15 35 -67 59 -117 45 -90
94 -155 117 -155 6 0 22 -11 35 -25 13 -14 26 -25 30 -25 4 0 17 -10 30 -23
39 -37 60 -53 77 -60 9 -3 17 -12 17 -19 0 -20 39 -41 54 -29 12 10 78 -7 141
-36 17 -8 48 -13 70 -11 36 3 41 7 51 37 9 27 20 38 49 48 21 7 46 20 55 28 9
8 21 15 26 15 5 0 26 8 47 19 20 10 61 22 92 26 65 8 98 31 101 72 3 46 14 73
30 73 8 0 14 4 14 9 0 5 10 11 23 13 14 2 22 10 22 23 1 11 5 26 9 34 6 9 3
18 -8 26 -14 11 -15 19 -6 61 16 75 18 78 35 64 34 -29 48 22 15 58 -22 24
-44 72 -32 72 4 0 13 13 20 28 14 32 6 91 -14 99 -6 2 -15 15 -18 27 -3 12
-17 28 -31 34 -35 16 -44 47 -39 126 4 53 2 74 -13 99 -10 18 -17 40 -15 50 4
18 4 18 17 0 7 -10 17 -15 20 -11 14 14 24 98 15 123 -13 34 -67 35 -104 0z
m-538 -49 c51 18 59 17 65 -6 8 -32 62 -48 145 -44 40 2 81 8 92 14 12 7 21 7
25 0 3 -5 13 -10 22 -10 22 0 86 -32 100 -49 9 -13 18 -14 54 -4 37 10 45 9
56 -5 26 -32 31 -58 22 -112 -11 -71 -4 -98 40 -141 66 -66 76 -94 52 -138
-15 -27 -9 -103 9 -109 7 -3 6 -10 -4 -21 -9 -10 -21 -40 -27 -67 -12 -56 -12
-67 -3 -111 5 -26 3 -33 -10 -33 -9 0 -16 -4 -16 -9 0 -5 -9 -12 -19 -16 -20
-6 -41 -52 -41 -91 0 -29 -20 -40 -90 -49 -48 -6 -96 -24 -150 -56 -8 -5 -31
-16 -50 -24 -58 -25 -64 -30 -73 -64 -8 -31 -11 -33 -39 -27 -18 3 -40 13 -49
22 -10 9 -24 14 -32 11 -8 -3 -32 3 -55 13 -22 10 -49 16 -59 14 -13 -4 -23 3
-33 20 -7 14 -19 26 -25 26 -7 0 -20 9 -30 20 -10 11 -20 18 -23 15 -3 -3 -11
4 -19 15 -8 11 -19 20 -25 20 -5 0 -19 11 -30 25 -11 14 -26 25 -33 25 -25 0
-66 54 -106 140 -22 46 -46 91 -54 100 -19 21 -13 192 9 243 9 21 14 42 12 46
-3 5 6 9 19 9 29 0 105 49 105 67 0 7 14 18 31 24 27 9 56 35 98 85 15 18 41
138 49 228 2 15 5 15 27 4 21 -11 32 -11 63 0z"/>
<path d="M592 630 c-19 -4 -40 -17 -48 -28 -7 -11 -25 -23 -40 -26 -23 -6 -25
-10 -20 -40 6 -29 3 -36 -20 -51 -15 -10 -41 -32 -59 -49 -58 -58 -180 -66
-228 -15 -22 24 -32 24 -73 -1 -35 -22 -48 -47 -39 -72 3 -8 -1 -28 -10 -44
-19 -37 -19 -36 10 -68 18 -20 34 -26 65 -26 47 0 174 -26 207 -42 12 -6 36
-34 53 -62 47 -78 117 -108 153 -68 10 11 14 26 10 40 -3 12 4 46 15 74 12 29
22 67 24 83 3 26 8 31 38 35 24 4 36 11 39 25 2 11 14 35 27 55 13 19 24 41
24 50 0 8 13 28 29 43 44 41 47 61 16 122 -37 72 -78 88 -173 65z m108 -40
c14 -10 25 -22 26 -27 0 -4 6 -20 13 -35 13 -24 11 -29 -25 -72 -21 -26 -39
-52 -39 -59 0 -7 -9 -31 -20 -54 -16 -34 -25 -43 -47 -43 -32 0 -40 -13 -58
-93 -7 -32 -17 -60 -22 -63 -4 -3 -8 -23 -8 -44 0 -21 -4 -41 -9 -44 -18 -11
-70 29 -90 69 -11 22 -33 50 -48 61 -28 21 -202 64 -256 64 -30 0 -47 24 -28
43 6 6 11 28 11 49 0 26 4 38 14 38 8 0 16 6 19 13 3 9 9 8 23 -5 59 -51 206
-42 267 17 18 17 47 41 65 53 25 19 32 30 32 58 0 22 5 34 13 34 8 0 22 9 32
20 10 11 28 20 41 20 13 0 26 5 29 10 10 16 38 11 65 -10z"/>
</g>
</svg>
